<mxfile host="app.diagrams.net" agent="Mozilla/5.0 (Windows NT 10.0; Win64; x64) AppleWebKit/537.36 (KHTML, like Gecko) Chrome/140.0.0.0 Safari/537.36" version="28.2.5">
  <diagram name="Page 1" id="8bhThnBJ40ZDIlG7mZuH">
    <mxGraphModel grid="0" page="0" gridSize="10" guides="1" tooltips="1" connect="1" arrows="1" fold="1" pageScale="1" pageWidth="827" pageHeight="1169" math="0" shadow="0">
      <root>
        <mxCell id="o4w2FNKHohHT6hhxWV9E-0" />
        <mxCell id="o4w2FNKHohHT6hhxWV9E-1" parent="o4w2FNKHohHT6hhxWV9E-0" />
        <mxCell id="e1MFcxCa2907yor-ic1J-0" style="edgeStyle=orthogonalEdgeStyle;rounded=0;orthogonalLoop=1;jettySize=auto;html=1;exitX=0.5;exitY=1;exitDx=0;exitDy=0;exitPerimeter=0;entryX=0.5;entryY=0;entryDx=0;entryDy=0;" edge="1" parent="o4w2FNKHohHT6hhxWV9E-1">
          <mxGeometry relative="1" as="geometry">
            <mxPoint x="490" y="219.9999999999999" as="sourcePoint" />
            <mxPoint x="490" y="359.9999999999999" as="targetPoint" />
            <Array as="points">
              <mxPoint x="490" y="270" />
              <mxPoint x="490" y="270" />
            </Array>
          </mxGeometry>
        </mxCell>
        <object placeholders="1" c4Name="Customer&#xa;" c4Type="Person" c4Description="Place order / Payment / Track order" label="&lt;font style=&quot;font-size: 16px&quot;&gt;&lt;b&gt;%c4Name%&lt;/b&gt;&lt;/font&gt;&lt;div&gt;[%c4Type%]&lt;/div&gt;&lt;br&gt;&lt;div&gt;&lt;font style=&quot;font-size: 11px&quot;&gt;&lt;font color=&quot;#cccccc&quot;&gt;%c4Description%&lt;/font&gt;&lt;/div&gt;" id="e1MFcxCa2907yor-ic1J-1">
          <mxCell style="html=1;fontSize=11;dashed=0;whiteSpace=wrap;fillColor=#083F75;strokeColor=#06315C;fontColor=#ffffff;shape=mxgraph.c4.person2;align=center;metaEdit=1;points=[[0.5,0,0],[1,0.5,0],[1,0.75,0],[0.75,1,0],[0.5,1,0],[0.25,1,0],[0,0.75,0],[0,0.5,0]];resizable=0;" vertex="1" parent="o4w2FNKHohHT6hhxWV9E-1">
            <mxGeometry x="404" y="40" width="200" height="180" as="geometry" />
          </mxCell>
        </object>
        <mxCell id="e1MFcxCa2907yor-ic1J-2" style="edgeStyle=orthogonalEdgeStyle;rounded=0;orthogonalLoop=1;jettySize=auto;html=1;exitX=0.5;exitY=0;exitDx=0;exitDy=0;exitPerimeter=0;entryX=0.5;entryY=1;entryDx=0;entryDy=0;" edge="1" parent="o4w2FNKHohHT6hhxWV9E-1" source="e1MFcxCa2907yor-ic1J-3" target="e1MFcxCa2907yor-ic1J-6">
          <mxGeometry relative="1" as="geometry" />
        </mxCell>
        <object placeholders="1" c4Name="SysAdmin&#xa;" c4Type="Person" c4Description="Manage products, inventory, carts, and order statuses." label="&lt;font style=&quot;font-size: 16px&quot;&gt;&lt;b&gt;%c4Name%&lt;/b&gt;&lt;/font&gt;&lt;div&gt;[%c4Type%]&lt;/div&gt;&lt;br&gt;&lt;div&gt;&lt;font style=&quot;font-size: 11px&quot;&gt;&lt;font color=&quot;#cccccc&quot;&gt;%c4Description%&lt;/font&gt;&lt;/div&gt;" id="e1MFcxCa2907yor-ic1J-3">
          <mxCell style="html=1;fontSize=11;dashed=0;whiteSpace=wrap;fillColor=#083F75;strokeColor=#06315C;fontColor=#ffffff;shape=mxgraph.c4.person2;align=center;metaEdit=1;points=[[0.5,0,0],[1,0.5,0],[1,0.75,0],[0.75,1,0],[0.5,1,0],[0.25,1,0],[0,0.75,0],[0,0.5,0]];resizable=0;" vertex="1" parent="o4w2FNKHohHT6hhxWV9E-1">
            <mxGeometry x="404" y="570" width="200" height="180" as="geometry" />
          </mxCell>
        </object>
        <mxCell id="e1MFcxCa2907yor-ic1J-4" style="edgeStyle=orthogonalEdgeStyle;rounded=0;orthogonalLoop=1;jettySize=auto;html=1;exitX=0.75;exitY=0;exitDx=0;exitDy=0;exitPerimeter=0;entryX=0.25;entryY=0;entryDx=0;entryDy=0;" edge="1" parent="o4w2FNKHohHT6hhxWV9E-1" source="e1MFcxCa2907yor-ic1J-5" target="e1MFcxCa2907yor-ic1J-6">
          <mxGeometry relative="1" as="geometry" />
        </mxCell>
        <object placeholders="1" c4Name="Payment gateway" c4Type="External System" c4Description="" label="&lt;font style=&quot;font-size: 16px&quot;&gt;&lt;b&gt;%c4Name%&lt;/b&gt;&lt;/font&gt;&lt;div&gt;[%c4Type%]&lt;/div&gt;&lt;br&gt;&lt;div&gt;&lt;font style=&quot;font-size: 11px&quot;&gt;&lt;font color=&quot;#cccccc&quot;&gt;%c4Description%&lt;/font&gt;&lt;/div&gt;" id="e1MFcxCa2907yor-ic1J-5">
          <mxCell style="rounded=1;whiteSpace=wrap;html=1;labelBackgroundColor=none;fillColor=#8C8496;fontColor=#ffffff;align=center;arcSize=10;strokeColor=#736782;metaEdit=1;resizable=0;points=[[0.25,0,0],[0.5,0,0],[0.75,0,0],[1,0.25,0],[1,0.5,0],[1,0.75,0],[0.75,1,0],[0.5,1,0],[0.25,1,0],[0,0.75,0],[0,0.5,0],[0,0.25,0]];" vertex="1" parent="o4w2FNKHohHT6hhxWV9E-1">
            <mxGeometry x="40" y="435" width="240" height="120" as="geometry" />
          </mxCell>
        </object>
        <mxCell id="e1MFcxCa2907yor-ic1J-6" value="Food Delivery System&amp;nbsp;" style="rounded=0;whiteSpace=wrap;html=1;fillColor=#1ba1e2;fontColor=#ffffff;strokeColor=#006EAF;" vertex="1" parent="o4w2FNKHohHT6hhxWV9E-1">
          <mxGeometry x="414" y="360" width="180" height="60" as="geometry" />
        </mxCell>
        <mxCell id="e1MFcxCa2907yor-ic1J-7" value="The&amp;nbsp;requests (sign up, log in,&amp;nbsp;&lt;div&gt;browse products, add to cart, place order)&lt;/div&gt;" style="text;html=1;align=center;verticalAlign=middle;resizable=0;points=[];autosize=1;strokeColor=none;fillColor=none;" vertex="1" parent="o4w2FNKHohHT6hhxWV9E-1">
          <mxGeometry x="240" y="230" width="250" height="40" as="geometry" />
        </mxCell>
        <mxCell id="e1MFcxCa2907yor-ic1J-8" style="edgeStyle=orthogonalEdgeStyle;rounded=0;orthogonalLoop=1;jettySize=auto;html=1;exitX=0;exitY=0.75;exitDx=0;exitDy=0;exitPerimeter=0;entryX=0.5;entryY=0;entryDx=0;entryDy=0;entryPerimeter=0;" edge="1" parent="o4w2FNKHohHT6hhxWV9E-1" source="e1MFcxCa2907yor-ic1J-1" target="e1MFcxCa2907yor-ic1J-5">
          <mxGeometry relative="1" as="geometry" />
        </mxCell>
        <mxCell id="e1MFcxCa2907yor-ic1J-9" value="Pay in" style="text;html=1;align=center;verticalAlign=middle;resizable=0;points=[];autosize=1;strokeColor=none;fillColor=none;" vertex="1" parent="o4w2FNKHohHT6hhxWV9E-1">
          <mxGeometry x="80" y="270" width="60" height="30" as="geometry" />
        </mxCell>
        <mxCell id="e1MFcxCa2907yor-ic1J-10" style="edgeStyle=orthogonalEdgeStyle;rounded=0;orthogonalLoop=1;jettySize=auto;html=1;exitX=0;exitY=0.5;exitDx=0;exitDy=0;entryX=1;entryY=0.5;entryDx=0;entryDy=0;entryPerimeter=0;" edge="1" parent="o4w2FNKHohHT6hhxWV9E-1" source="e1MFcxCa2907yor-ic1J-6" target="e1MFcxCa2907yor-ic1J-5">
          <mxGeometry relative="1" as="geometry" />
        </mxCell>
        <mxCell id="e1MFcxCa2907yor-ic1J-11" value="delegate the payment" style="text;html=1;align=center;verticalAlign=middle;resizable=0;points=[];autosize=1;strokeColor=none;fillColor=none;" vertex="1" parent="o4w2FNKHohHT6hhxWV9E-1">
          <mxGeometry x="330" y="488" width="140" height="30" as="geometry" />
        </mxCell>
        <mxCell id="e1MFcxCa2907yor-ic1J-12" value="return info about payment" style="text;html=1;align=center;verticalAlign=middle;resizable=0;points=[];autosize=1;strokeColor=none;fillColor=none;" vertex="1" parent="o4w2FNKHohHT6hhxWV9E-1">
          <mxGeometry x="180" y="298" width="160" height="30" as="geometry" />
        </mxCell>
        <mxCell id="e1MFcxCa2907yor-ic1J-15" value="" style="group;labelBorderColor=none;labelBackgroundColor=none;fontFamily=Times New Roman;" connectable="0" vertex="1" parent="o4w2FNKHohHT6hhxWV9E-1">
          <mxGeometry x="130" y="680" width="170" height="240" as="geometry" />
        </mxCell>
        <mxCell id="e1MFcxCa2907yor-ic1J-16" value="&lt;font style=&quot;font-size: 22px;&quot;&gt;Legend&lt;/font&gt;" style="rounded=0;whiteSpace=wrap;html=1;align=left;gradientColor=none;labelBorderColor=none;fontFamily=Times New Roman;" vertex="1" parent="e1MFcxCa2907yor-ic1J-15">
          <mxGeometry width="170" height="48" as="geometry" />
        </mxCell>
        <mxCell id="e1MFcxCa2907yor-ic1J-17" value="&lt;font style=&quot;font-size: 22px; color: rgb(255, 255, 255);&quot;&gt;Person&lt;/font&gt;" style="rounded=0;whiteSpace=wrap;html=1;align=center;gradientColor=none;fillColor=#0D427E;labelBorderColor=none;fontFamily=Times New Roman;" vertex="1" parent="e1MFcxCa2907yor-ic1J-15">
          <mxGeometry y="48" width="170" height="48" as="geometry" />
        </mxCell>
        <mxCell id="e1MFcxCa2907yor-ic1J-18" value="&lt;font style=&quot;font-size: 22px;&quot;&gt;System&lt;span style=&quot;white-space: pre;&quot;&gt;&#x9;&lt;/span&gt;&lt;/font&gt;" style="rounded=0;whiteSpace=wrap;html=1;align=center;fillColor=#0050ef;fontColor=#ffffff;strokeColor=#001DBC;labelBorderColor=none;fontFamily=Times New Roman;" vertex="1" parent="e1MFcxCa2907yor-ic1J-15">
          <mxGeometry y="96" width="170" height="48" as="geometry" />
        </mxCell>
        <mxCell id="e1MFcxCa2907yor-ic1J-19" value="&lt;font style=&quot;font-size: 22px;&quot;&gt;External system&lt;/font&gt;" style="rounded=0;whiteSpace=wrap;html=1;align=center;fillColor=#bac8d3;strokeColor=#23445d;labelBorderColor=none;fontFamily=Times New Roman;" vertex="1" parent="e1MFcxCa2907yor-ic1J-15">
          <mxGeometry y="144" width="170" height="48" as="geometry" />
        </mxCell>
        <mxCell id="Iu5uHRo2yWuMEDCuOuZD-2" style="edgeStyle=orthogonalEdgeStyle;rounded=0;orthogonalLoop=1;jettySize=auto;html=1;entryX=0.75;entryY=0;entryDx=0;entryDy=0;" edge="1" parent="o4w2FNKHohHT6hhxWV9E-1" source="Iu5uHRo2yWuMEDCuOuZD-0" target="e1MFcxCa2907yor-ic1J-6">
          <mxGeometry relative="1" as="geometry" />
        </mxCell>
        <object placeholders="1" c4Name="Delivery Staff&#xa;" c4Type="Person" c4Description="Deliver orders &amp; update status" label="&lt;font style=&quot;font-size: 16px&quot;&gt;&lt;b&gt;%c4Name%&lt;/b&gt;&lt;/font&gt;&lt;div&gt;[%c4Type%]&lt;/div&gt;&lt;br&gt;&lt;div&gt;&lt;font style=&quot;font-size: 11px&quot;&gt;&lt;font color=&quot;#cccccc&quot;&gt;%c4Description%&lt;/font&gt;&lt;/div&gt;" id="Iu5uHRo2yWuMEDCuOuZD-0">
          <mxCell style="html=1;fontSize=11;dashed=0;whiteSpace=wrap;fillColor=#083F75;strokeColor=#06315C;fontColor=#ffffff;shape=mxgraph.c4.person2;align=center;metaEdit=1;points=[[0.5,0,0],[1,0.5,0],[1,0.75,0],[0.75,1,0],[0.5,1,0],[0.25,1,0],[0,0.75,0],[0,0.5,0]];resizable=0;" vertex="1" parent="o4w2FNKHohHT6hhxWV9E-1">
            <mxGeometry x="760" y="280" width="200" height="180" as="geometry" />
          </mxCell>
        </object>
        <mxCell id="Iu5uHRo2yWuMEDCuOuZD-3" style="edgeStyle=orthogonalEdgeStyle;rounded=0;orthogonalLoop=1;jettySize=auto;html=1;exitX=0.75;exitY=1;exitDx=0;exitDy=0;entryX=0;entryY=0.75;entryDx=0;entryDy=0;entryPerimeter=0;" edge="1" parent="o4w2FNKHohHT6hhxWV9E-1" source="e1MFcxCa2907yor-ic1J-6" target="Iu5uHRo2yWuMEDCuOuZD-0">
          <mxGeometry relative="1" as="geometry" />
        </mxCell>
        <mxCell id="Iu5uHRo2yWuMEDCuOuZD-4" value="Send order assignment" style="text;whiteSpace=wrap;html=1;" vertex="1" parent="o4w2FNKHohHT6hhxWV9E-1">
          <mxGeometry x="560" y="448" width="130" height="40" as="geometry" />
        </mxCell>
        <mxCell id="Iu5uHRo2yWuMEDCuOuZD-6" value="receives delivery updates" style="text;whiteSpace=wrap;html=1;" vertex="1" parent="o4w2FNKHohHT6hhxWV9E-1">
          <mxGeometry x="550" y="310" width="170" height="40" as="geometry" />
        </mxCell>
        <mxCell id="Iu5uHRo2yWuMEDCuOuZD-10" value="manage products, inventory,&amp;nbsp;&lt;div&gt;customers, and order reports&lt;/div&gt;" style="text;whiteSpace=wrap;html=1;" vertex="1" parent="o4w2FNKHohHT6hhxWV9E-1">
          <mxGeometry x="530" y="530" width="340" height="40" as="geometry" />
        </mxCell>
        <mxCell id="Iu5uHRo2yWuMEDCuOuZD-11" style="edgeStyle=orthogonalEdgeStyle;rounded=0;orthogonalLoop=1;jettySize=auto;html=1;entryX=0.5;entryY=1;entryDx=0;entryDy=0;entryPerimeter=0;" edge="1" parent="o4w2FNKHohHT6hhxWV9E-1" source="e1MFcxCa2907yor-ic1J-6" target="e1MFcxCa2907yor-ic1J-1">
          <mxGeometry relative="1" as="geometry" />
        </mxCell>
        <mxCell id="Iu5uHRo2yWuMEDCuOuZD-12" value="Provides order details, payment status, and delivery status" style="text;whiteSpace=wrap;html=1;" vertex="1" parent="o4w2FNKHohHT6hhxWV9E-1">
          <mxGeometry x="510" y="240" width="340" height="40" as="geometry" />
        </mxCell>
      </root>
    </mxGraphModel>
  </diagram>
</mxfile>
